<svg xmlns="http://www.w3.org/2000/svg" xmlns:xlink="http://www.w3.org/1999/xlink" zoomAndPan="magnify" viewBox="300 263 902 978" preserveAspectRatio="xMidYMid meet" version="1.0"><defs><g/><clipPath id="1e268ed160"><rect x="0" width="873" y="0" height="333"/></clipPath></defs><path fill="#011821" d="M 464.320312 566.976562 C 476.734375 513.09375 494.917969 465.644531 519.085938 425.066406 C 543.257812 384.265625 573.414062 351.894531 609.554688 327.722656 C 645.699219 303.554688 687.828125 291.359375 736.167969 291.359375 C 792.929688 291.359375 841.714844 304.886719 882.070312 332.160156 C 922.425781 359.433594 955.464844 394.910156 981.40625 439.035156 C 1007.351562 483.160156 1026.199219 533.496094 1038.171875 589.816406 C 1040.167969 599.574219 1042.164062 609.105469 1043.714844 618.863281 L 1191.613281 618.863281 C 1186.511719 600.015625 1180.082031 581.613281 1172.542969 563.652344 C 1148.375 506 1115.335938 455.445312 1073.871094 412.207031 C 1032.183594 368.96875 983.402344 335.042969 927.523438 310.429688 C 871.425781 285.816406 812 273.398438 749.25 273.398438 C 686.496094 273.398438 627.292969 285.59375 571.636719 310.429688 C 515.984375 335.042969 467.644531 368.96875 426.402344 412.207031 C 385.160156 455.445312 352.785156 506 329.058594 563.652344 C 321.742188 581.613281 315.3125 600.015625 310.210938 618.863281 L 454.785156 618.863281 C 457.222656 601.347656 460.328125 584.050781 464.320312 566.976562 Z M 464.320312 566.976562 " fill-opacity="1" fill-rule="nonzero"/><path fill="#011821" d="M 1038.613281 936.832031 C 1027.085938 991.160156 1009.34375 1038.832031 985.175781 1080.074219 C 961.007812 1121.316406 930.40625 1153.691406 893.378906 1177.417969 C 856.570312 1201.140625 812.445312 1213.117188 761.667969 1213.117188 C 706.453125 1213.117188 659.003906 1199.8125 619.089844 1172.980469 C 579.175781 1146.152344 546.582031 1110.675781 521.082031 1066.546875 C 495.582031 1022.421875 476.734375 971.425781 464.316406 913.773438 C 462.324219 904.238281 460.546875 894.925781 458.773438 885.390625 L 311.097656 885.390625 C 315.976562 902.90625 321.742188 919.980469 328.617188 936.832031 C 352.339844 995.371094 384.714844 1046.59375 425.957031 1090.273438 C 467.199219 1133.957031 515.539062 1168.324219 571.195312 1193.382812 C 626.851562 1218.4375 686.054688 1230.855469 748.804688 1230.855469 C 811.558594 1230.855469 870.980469 1218.214844 927.082031 1193.382812 C 983.179688 1168.324219 1031.960938 1133.957031 1073.425781 1090.273438 C 1115.113281 1046.59375 1147.929688 995.371094 1172.101562 936.832031 C 1178.972656 919.980469 1184.960938 902.90625 1190.058594 885.390625 L 1047.484375 885.390625 C 1045.265625 902.90625 1042.164062 919.980469 1038.613281 936.832031 Z M 1038.613281 936.832031 " fill-opacity="1" fill-rule="nonzero"/><g transform="matrix(1, 0, 0, 1, 314, 581)"><g clip-path="url(#1e268ed160)"><g fill="#011821" fill-opacity="1"><g transform="translate(17.451653, 219.814661)"><g><path d="M 149.484375 -49.4375 C 150.535156 -48.382812 151.0625 -47.132812 151.0625 -45.6875 C 150.925781 -44.25 150.335938 -43.066406 149.296875 -42.140625 C 142.203125 -35.316406 134.550781 -30.265625 126.34375 -26.984375 C 118.132812 -23.703125 109.726562 -21.863281 101.125 -21.46875 C 92.53125 -21.070312 84 -21.757812 75.53125 -23.53125 C 67.0625 -25.300781 59.019531 -27.832031 51.40625 -31.125 C 49.4375 -31.90625 47.46875 -31.835938 45.5 -30.921875 C 43.53125 -30.003906 42.21875 -28.492188 41.5625 -26.390625 C 40.375 -21.921875 38.597656 -17.71875 36.234375 -13.78125 C 33.867188 -9.320312 30.519531 -5.710938 26.1875 -2.953125 C 21.851562 -0.191406 17.128906 1.25 12.015625 1.375 C 10.171875 1.375 8.398438 1.242188 6.703125 0.984375 L 4.734375 0.203125 C -6.429688 -5.835938 -9.847656 -22.054688 -5.515625 -48.453125 C -4.328125 -55.671875 -2.519531 -63.546875 -0.09375 -72.078125 C 2.332031 -80.617188 5.15625 -89.316406 8.375 -98.171875 C 11.59375 -107.035156 15.101562 -115.570312 18.90625 -123.78125 C 22.71875 -131.988281 26.65625 -139.40625 30.71875 -146.03125 C 34.789062 -152.664062 38.796875 -158.050781 42.734375 -162.1875 C 46.671875 -166.320312 50.414062 -168.65625 53.96875 -169.1875 C 56.71875 -169.96875 59.375 -169.765625 61.9375 -168.578125 C 64.5 -167.398438 66.4375 -165.566406 67.75 -163.078125 C 69.195312 -159.796875 69.425781 -155.394531 68.4375 -149.875 C 67.457031 -144.363281 65.554688 -138.09375 62.734375 -131.0625 C 59.910156 -124.039062 56.492188 -116.722656 52.484375 -109.109375 C 48.484375 -101.492188 44.179688 -93.910156 39.578125 -86.359375 C 34.984375 -78.816406 30.421875 -71.757812 25.890625 -65.1875 C 21.367188 -58.625 17.203125 -52.945312 13.390625 -48.15625 C 9.585938 -43.363281 6.4375 -39.851562 3.9375 -37.625 C 3.800781 -37.488281 3.671875 -37.351562 3.546875 -37.21875 C 2.890625 -31.445312 2.953125 -25.671875 3.734375 -19.890625 C 4.398438 -15.554688 6.703125 -12.601562 10.640625 -11.03125 C 14.703125 -9.457031 18.441406 -9.984375 21.859375 -12.609375 C 24.085938 -14.441406 25.992188 -16.671875 27.578125 -19.296875 C 30.203125 -23.765625 31.90625 -28.554688 32.6875 -33.671875 C 33.21875 -38.003906 31.710938 -41.289062 28.171875 -43.53125 C 26.191406 -44.84375 24.351562 -46.15625 22.65625 -47.46875 C 21.070312 -48.644531 20.414062 -50.285156 20.6875 -52.390625 C 20.945312 -54.359375 22.0625 -55.671875 24.03125 -56.328125 C 26.65625 -57.503906 29.378906 -57.765625 32.203125 -57.109375 C 35.023438 -56.453125 37.351562 -55.007812 39.1875 -52.78125 C 40.5 -51.070312 41.484375 -49.171875 42.140625 -47.078125 C 49.234375 -43.003906 57.046875 -39.585938 65.578125 -36.828125 C 74.117188 -34.066406 82.882812 -32.390625 91.875 -31.796875 C 100.875 -31.210938 109.707031 -32.265625 118.375 -34.953125 C 127.039062 -37.648438 134.984375 -42.539062 142.203125 -49.625 C 143.253906 -50.550781 144.5 -51.015625 145.9375 -51.015625 C 147.382812 -51.015625 148.566406 -50.488281 149.484375 -49.4375 Z M 55.546875 -158.9375 C 53.441406 -158.675781 50.84375 -156.675781 47.75 -152.9375 C 44.664062 -149.195312 41.316406 -144.140625 37.703125 -137.765625 C 34.097656 -131.398438 30.457031 -124.175781 26.78125 -116.09375 C 23.101562 -108.019531 19.625 -99.453125 16.34375 -90.390625 C 13.0625 -81.335938 10.304688 -72.28125 8.078125 -63.21875 C 7.816406 -62.300781 8.144531 -61.644531 9.0625 -61.25 C 9.84375 -60.851562 10.5 -61.050781 11.03125 -61.84375 C 20.613281 -75.101562 29.410156 -88.820312 37.421875 -103 C 44.117188 -114.945312 49.070312 -124.796875 52.28125 -132.546875 C 55.5 -140.296875 57.46875 -146.269531 58.1875 -150.46875 C 58.914062 -154.675781 58.953125 -157.367188 58.296875 -158.546875 C 58.296875 -158.679688 58.195312 -158.8125 58 -158.9375 C 57.800781 -159.070312 57.441406 -159.140625 56.921875 -159.140625 C 56.390625 -159.140625 55.929688 -159.070312 55.546875 -158.9375 Z M 55.546875 -158.9375 "/></g></g></g><g fill="#011821" fill-opacity="1"><g transform="translate(159.815548, 219.814661)"><g><path d="M 135.5 -50.609375 C 136.550781 -49.566406 137.078125 -48.320312 137.078125 -46.875 C 137.078125 -45.425781 136.550781 -44.175781 135.5 -43.125 C 135.101562 -42.738281 133.164062 -40.96875 129.6875 -37.8125 C 126.207031 -34.664062 121.644531 -30.925781 116 -26.59375 C 110.351562 -22.257812 103.921875 -17.925781 96.703125 -13.59375 C 89.484375 -9.257812 81.898438 -5.644531 73.953125 -2.75 C 66.015625 0.132812 58.039062 1.578125 50.03125 1.578125 C 45.164062 1.578125 40.4375 0.921875 35.84375 -0.390625 C 27.3125 -2.890625 20.1875 -8.046875 14.46875 -15.859375 C 8.757812 -23.671875 4.59375 -33.75 1.96875 -46.09375 C 1.707031 -46.75 1.578125 -47.40625 1.578125 -48.0625 C 0.390625 -54.488281 -0.394531 -60.988281 -0.78125 -67.5625 C -1.175781 -76.09375 -1.015625 -85.019531 -0.296875 -94.34375 C 0.421875 -103.664062 1.632812 -112.820312 3.34375 -121.8125 C 5.050781 -130.8125 7.25 -139.148438 9.9375 -146.828125 C 12.632812 -154.503906 15.65625 -160.96875 19 -166.21875 C 22.351562 -171.476562 26.066406 -175.023438 30.140625 -176.859375 C 32.890625 -178.046875 35.773438 -178.242188 38.796875 -177.453125 C 41.816406 -176.660156 44.25 -175.085938 46.09375 -172.734375 C 48.976562 -169.710938 50.519531 -165.34375 50.71875 -159.625 C 50.914062 -153.914062 50.222656 -147.382812 48.640625 -140.03125 C 47.066406 -132.675781 44.898438 -124.925781 42.140625 -116.78125 C 39.390625 -108.644531 36.375 -100.640625 33.09375 -92.765625 C 29.8125 -84.890625 26.59375 -77.535156 23.4375 -70.703125 C 20.28125 -63.878906 17.585938 -58.171875 15.359375 -53.578125 C 13.265625 -49.242188 12.875 -44.84375 14.1875 -40.375 C 16.15625 -33.550781 19.070312 -27.347656 22.9375 -21.765625 C 26.8125 -16.179688 32.097656 -12.335938 38.796875 -10.234375 C 44.972656 -8.398438 51.441406 -8.070312 58.203125 -9.25 C 64.960938 -10.4375 71.65625 -12.570312 78.28125 -15.65625 C 84.914062 -18.738281 91.21875 -22.21875 97.1875 -26.09375 C 103.164062 -29.96875 108.453125 -33.742188 113.046875 -37.421875 C 117.640625 -41.097656 121.28125 -44.179688 123.96875 -46.671875 C 126.664062 -49.171875 128.082031 -50.484375 128.21875 -50.609375 C 129.269531 -51.535156 130.515625 -52 131.953125 -52 C 133.265625 -52 134.445312 -51.535156 135.5 -50.609375 Z M 10.234375 -70.515625 C 10.367188 -69.585938 10.828125 -68.957031 11.609375 -68.625 C 12.398438 -68.300781 13.0625 -68.535156 13.59375 -69.328125 C 15.300781 -72.085938 17.269531 -76.15625 19.5 -81.53125 C 21.726562 -86.914062 24.023438 -93.019531 26.390625 -99.84375 C 28.753906 -106.675781 30.921875 -113.640625 32.890625 -120.734375 C 34.859375 -127.828125 36.5 -134.523438 37.8125 -140.828125 C 39.125 -147.128906 39.910156 -152.507812 40.171875 -156.96875 C 40.441406 -161.4375 39.921875 -164.328125 38.609375 -165.640625 C 37.421875 -166.953125 36.300781 -167.609375 35.25 -167.609375 C 34.851562 -167.609375 34.460938 -167.539062 34.078125 -167.40625 C 32.109375 -166.488281 29.84375 -163.664062 27.28125 -158.9375 C 24.71875 -154.207031 22.1875 -148.234375 19.6875 -141.015625 C 17.195312 -133.796875 15 -125.984375 13.09375 -117.578125 C 11.1875 -109.171875 9.90625 -100.863281 9.25 -92.65625 C 8.59375 -84.457031 8.921875 -77.078125 10.234375 -70.515625 Z M 10.234375 -70.515625 "/></g></g></g><g fill="#011821" fill-opacity="1"><g transform="translate(289.57738, 219.814661)"><g><path d="M 127.625 -53.171875 C 128.675781 -52.253906 129.203125 -51.070312 129.203125 -49.625 C 129.203125 -48.1875 128.742188 -46.941406 127.828125 -45.890625 C 127.296875 -45.492188 125.289062 -43.65625 121.8125 -40.375 C 118.332031 -37.09375 113.738281 -33.1875 108.03125 -28.65625 C 102.320312 -24.125 95.789062 -19.625 88.4375 -15.15625 C 81.082031 -10.695312 73.234375 -6.988281 64.890625 -4.03125 C 56.554688 -1.082031 48.1875 0.390625 39.78125 0.390625 C 27.707031 0.523438 16.875 -3.015625 7.28125 -10.234375 C 3.34375 -13.128906 0.65625 -16.546875 -0.78125 -20.484375 C -2.226562 -24.421875 -2.851562 -28.488281 -2.65625 -32.6875 C -2.457031 -36.894531 -1.832031 -40.835938 -0.78125 -44.515625 C 0.257812 -48.191406 1.269531 -51.207031 2.25 -53.5625 C 3.238281 -55.925781 3.800781 -57.242188 3.9375 -57.515625 C 4.726562 -58.691406 5.78125 -59.476562 7.09375 -59.875 C 8.40625 -60.269531 9.648438 -60.140625 10.828125 -59.484375 C 12.140625 -58.828125 13.023438 -57.84375 13.484375 -56.53125 C 13.953125 -55.21875 13.859375 -53.96875 13.203125 -52.78125 C 13.203125 -52.65625 12.804688 -51.738281 12.015625 -50.03125 C 11.222656 -48.320312 10.398438 -46.085938 9.546875 -43.328125 C 8.691406 -40.566406 8.097656 -37.644531 7.765625 -34.5625 C 7.441406 -31.476562 7.675781 -28.488281 8.46875 -25.59375 C 9.257812 -22.707031 10.898438 -20.347656 13.390625 -18.515625 C 19.429688 -14.046875 25.832031 -11.351562 32.59375 -10.4375 C 39.351562 -9.519531 46.144531 -9.878906 52.96875 -11.515625 C 59.800781 -13.160156 66.5 -15.59375 73.0625 -18.8125 C 79.632812 -22.03125 85.742188 -25.570312 91.390625 -29.4375 C 97.035156 -33.3125 102.023438 -37.019531 106.359375 -40.5625 C 110.691406 -44.113281 114.070312 -47.070312 116.5 -49.4375 C 118.925781 -51.800781 120.207031 -53.046875 120.34375 -53.171875 C 121.382812 -54.222656 122.59375 -54.75 123.96875 -54.75 C 125.351562 -54.75 126.570312 -54.222656 127.625 -53.171875 Z M 1.765625 -68.734375 C -0.859375 -68.734375 -2.5 -70.046875 -3.15625 -72.671875 C -3.8125 -75.296875 -2.957031 -77.265625 -0.59375 -78.578125 C 3.082031 -80.421875 6.363281 -82.851562 9.25 -85.875 C 10.300781 -86.925781 11.515625 -87.453125 12.890625 -87.453125 C 14.273438 -87.453125 15.492188 -86.988281 16.546875 -86.0625 C 17.597656 -85.019531 18.15625 -83.804688 18.21875 -82.421875 C 18.28125 -81.046875 17.785156 -79.832031 16.734375 -78.78125 C 13.054688 -74.96875 8.921875 -71.882812 4.328125 -69.53125 C 3.546875 -69 2.691406 -68.734375 1.765625 -68.734375 Z M 1.765625 -68.734375 "/></g></g></g><g fill="#011821" fill-opacity="1"><g transform="translate(410.478437, 219.814661)"><g><path d="M 130.578125 -51.796875 C 131.628906 -50.742188 132.15625 -49.53125 132.15625 -48.15625 C 132.15625 -46.78125 131.695312 -45.566406 130.78125 -44.515625 C 130.644531 -44.378906 129.492188 -43.359375 127.328125 -41.453125 C 125.160156 -39.554688 122.070312 -37.457031 118.0625 -35.15625 C 114.0625 -32.851562 109.335938 -30.945312 103.890625 -29.4375 C 98.441406 -27.925781 92.4375 -27.5 85.875 -28.15625 C 79.3125 -28.820312 72.414062 -31.253906 65.1875 -35.453125 C 63.21875 -36.628906 61.050781 -37.050781 58.6875 -36.71875 C 56.320312 -36.394531 54.351562 -35.378906 52.78125 -33.671875 C 46.082031 -26.847656 40.109375 -19.5625 34.859375 -11.8125 C 34.460938 -11.15625 34.132812 -10.5 33.875 -9.84375 C 31.113281 1.96875 26.644531 15.882812 20.46875 31.90625 C 14.300781 47.925781 6.5625 66.832031 -2.75 88.625 C -3.539062 90.726562 -5.117188 91.78125 -7.484375 91.78125 C -8.003906 91.78125 -8.53125 91.710938 -9.0625 91.578125 C -10.375 91.054688 -11.359375 90.203125 -12.015625 89.015625 C -12.671875 87.835938 -12.800781 86.59375 -12.40625 85.28125 C -8.863281 70.707031 -5.351562 57.546875 -1.875 45.796875 C 1.601562 34.046875 5.378906 23.273438 9.453125 13.484375 C 13.523438 3.703125 18.316406 -5.519531 23.828125 -14.1875 C 24.222656 -14.84375 24.550781 -15.5625 24.8125 -16.34375 C 25.863281 -21.46875 26.585938 -26.65625 26.984375 -31.90625 C 26.984375 -32.695312 26.71875 -33.09375 26.1875 -33.09375 C 25.664062 -33.09375 25.207031 -32.765625 24.8125 -32.109375 C 22.71875 -28.160156 20.421875 -24.347656 17.921875 -20.671875 C 15.429688 -17.003906 12.707031 -13.851562 9.75 -11.21875 C 6.789062 -8.59375 3.738281 -6.953125 0.59375 -6.296875 C -5.1875 -5.253906 -9.914062 -7.03125 -13.59375 -11.625 C -16.476562 -15.03125 -17.332031 -18.898438 -16.15625 -23.234375 C -15.363281 -27.046875 -13.585938 -31.3125 -10.828125 -36.03125 C -8.078125 -40.757812 -4.765625 -45.488281 -0.890625 -50.21875 C 2.984375 -54.945312 7.117188 -59.210938 11.515625 -63.015625 C 15.921875 -66.828125 20.15625 -69.65625 24.21875 -71.5 C 25.53125 -72.15625 26.84375 -72.25 28.15625 -71.78125 C 29.476562 -71.320312 30.46875 -70.4375 31.125 -69.125 C 31.644531 -67.8125 31.675781 -66.5 31.21875 -65.1875 C 30.757812 -63.875 29.875 -62.890625 28.5625 -62.234375 C 13.0625 -52.910156 1.769531 -39.910156 -5.3125 -23.234375 C -6.101562 -21.660156 -6.300781 -20.085938 -5.90625 -18.515625 C -4.726562 -17.328125 -3.773438 -16.664062 -3.046875 -16.53125 C -2.328125 -16.40625 -1.835938 -16.410156 -1.578125 -16.546875 C 0.523438 -16.941406 2.757812 -18.453125 5.125 -21.078125 C 7.488281 -23.703125 9.847656 -27.015625 12.203125 -31.015625 C 14.566406 -35.023438 16.800781 -39.195312 18.90625 -43.53125 C 21.007812 -47.863281 22.71875 -52 24.03125 -55.9375 C 24.8125 -58.164062 26.453125 -59.28125 28.953125 -59.28125 C 31.179688 -59.28125 32.753906 -58.164062 33.671875 -55.9375 C 34.992188 -52.78125 35.984375 -49.5 36.640625 -46.09375 C 36.898438 -43.59375 38.273438 -41.945312 40.765625 -41.15625 C 43.128906 -40.375 45.234375 -40.835938 47.078125 -42.546875 C 48.390625 -43.859375 49.765625 -45.171875 51.203125 -46.484375 C 53.171875 -48.316406 55.5 -49.332031 58.1875 -49.53125 C 60.882812 -49.726562 63.347656 -49.039062 65.578125 -47.46875 C 71.492188 -43 77.929688 -40.171875 84.890625 -38.984375 C 91.847656 -37.804688 98.707031 -38.300781 105.46875 -40.46875 C 112.226562 -42.632812 118.171875 -46.347656 123.296875 -51.609375 C 124.210938 -52.648438 125.394531 -53.171875 126.84375 -53.171875 C 128.28125 -53.171875 129.523438 -52.710938 130.578125 -51.796875 Z M 130.578125 -51.796875 "/></g></g></g><g fill="#011821" fill-opacity="1"><g transform="translate(533.742335, 219.814661)"><g><path d="M 170.953125 -55.34375 C 172.003906 -54.425781 172.53125 -53.242188 172.53125 -51.796875 C 172.53125 -50.347656 172.070312 -49.101562 171.15625 -48.0625 C 166.164062 -42.9375 160.023438 -37.515625 152.734375 -31.796875 C 145.453125 -26.085938 137.507812 -20.707031 128.90625 -15.65625 C 120.300781 -10.601562 111.5 -6.53125 102.5 -3.4375 C 93.507812 -0.351562 84.945312 1.1875 76.8125 1.1875 L 76.421875 1.1875 C 64.992188 1.570312 55.40625 -2.367188 47.65625 -10.640625 C 44.375 -14.316406 42.40625 -18.582031 41.75 -23.4375 C 41.488281 -25.269531 40.441406 -26.453125 38.609375 -26.984375 C 36.898438 -27.503906 35.390625 -27.109375 34.078125 -25.796875 C 30.140625 -21.597656 26.003906 -17.890625 21.671875 -14.671875 C 17.335938 -11.453125 13.066406 -9.25 8.859375 -8.0625 C 4.660156 -6.882812 0.789062 -7.347656 -2.75 -9.453125 C -6.164062 -11.421875 -8.035156 -14.441406 -8.359375 -18.515625 C -8.691406 -22.585938 -8.132812 -27.050781 -6.6875 -31.90625 C -5.25 -36.757812 -3.445312 -41.453125 -1.28125 -45.984375 C 0.882812 -50.515625 2.753906 -54.222656 4.328125 -57.109375 C 5.117188 -58.296875 6.171875 -59.050781 7.484375 -59.375 C 8.796875 -59.707031 10.039062 -59.546875 11.21875 -58.890625 C 12.40625 -58.234375 13.195312 -57.25 13.59375 -55.9375 C 13.988281 -54.625 13.921875 -53.3125 13.390625 -52 C 10.109375 -46.351562 7.515625 -41.066406 5.609375 -36.140625 C 3.703125 -31.210938 2.488281 -27.140625 1.96875 -23.921875 C 1.445312 -20.710938 1.644531 -18.84375 2.5625 -18.3125 C 4.269531 -17.257812 6.796875 -17.648438 10.140625 -19.484375 C 13.492188 -21.328125 17.269531 -24.1875 21.46875 -28.0625 C 25.664062 -31.9375 29.929688 -36.46875 34.265625 -41.65625 C 38.597656 -46.84375 42.601562 -52.128906 46.28125 -57.515625 C 47.070312 -58.691406 48.085938 -59.410156 49.328125 -59.671875 C 50.578125 -59.941406 51.796875 -59.8125 52.984375 -59.28125 C 54.160156 -58.625 54.976562 -57.703125 55.4375 -56.515625 C 55.894531 -55.335938 55.929688 -54.160156 55.546875 -52.984375 C 54.890625 -51.273438 54.195312 -48.875 53.46875 -45.78125 C 52.75 -42.695312 52.191406 -39.347656 51.796875 -35.734375 C 51.398438 -32.128906 51.429688 -28.6875 51.890625 -25.40625 C 52.359375 -22.125 53.441406 -19.5 55.140625 -17.53125 C 61.054688 -11.625 68.148438 -8.800781 76.421875 -9.0625 L 76.8125 -9.0625 C 84.164062 -9.0625 91.941406 -10.570312 100.140625 -13.59375 C 108.347656 -16.613281 116.457031 -20.484375 124.46875 -25.203125 C 132.476562 -29.929688 139.894531 -34.953125 146.71875 -40.265625 C 153.550781 -45.585938 159.132812 -50.546875 163.46875 -55.140625 C 164.519531 -56.191406 165.769531 -56.785156 167.21875 -56.921875 C 168.65625 -56.921875 169.898438 -56.394531 170.953125 -55.34375 Z M 170.953125 -55.34375 "/></g></g></g><g fill="#011821" fill-opacity="1"><g transform="translate(696.584596, 219.814661)"><g><path d="M 165.25 -50.609375 C 166.164062 -49.566406 166.554688 -48.320312 166.421875 -46.875 C 166.296875 -45.425781 165.640625 -44.242188 164.453125 -43.328125 C 163.929688 -42.929688 161.566406 -41.191406 157.359375 -38.109375 C 153.160156 -35.023438 147.515625 -31.347656 140.421875 -27.078125 C 133.335938 -22.816406 125.132812 -18.582031 115.8125 -14.375 C 106.488281 -10.175781 96.507812 -6.695312 85.875 -3.9375 C 75.238281 -1.175781 64.273438 0.203125 52.984375 0.203125 C 39.585938 0.328125 26.71875 -2.101562 14.375 -7.09375 C 7.550781 -9.84375 2.757812 -13.054688 0 -16.734375 C -2.757812 -20.410156 -4.332031 -24.019531 -4.71875 -27.5625 C -5.113281 -31.113281 -5.050781 -34.140625 -4.53125 -36.640625 C -3.34375 -41.492188 -1.046875 -46.1875 2.359375 -50.71875 C 5.773438 -55.25 9.78125 -59.316406 14.375 -62.921875 C 18.96875 -66.535156 23.660156 -69.328125 28.453125 -71.296875 C 33.253906 -73.265625 37.625 -74.117188 41.5625 -73.859375 C 45.101562 -73.859375 48.15625 -72.609375 50.71875 -70.109375 C 53.28125 -67.617188 54.691406 -64.535156 54.953125 -60.859375 C 55.078125 -58.753906 54.550781 -56.160156 53.375 -53.078125 C 52.195312 -49.992188 49.175781 -46.875 44.3125 -43.71875 C 33.15625 -36.757812 20.945312 -33.675781 7.6875 -34.46875 C 7.03125 -34.59375 6.4375 -34.460938 5.90625 -34.078125 C 5.382812 -33.679688 5.1875 -33.15625 5.3125 -32.5 C 5.1875 -31.3125 5.316406 -29.796875 5.703125 -27.953125 C 6.097656 -26.117188 7.210938 -24.21875 9.046875 -22.25 C 10.890625 -20.28125 13.976562 -18.441406 18.3125 -16.734375 C 27.238281 -12.929688 36.394531 -10.765625 45.78125 -10.234375 C 55.175781 -9.710938 64.398438 -10.304688 73.453125 -12.015625 C 82.515625 -13.722656 91.210938 -16.117188 99.546875 -19.203125 C 107.890625 -22.285156 115.570312 -25.664062 122.59375 -29.34375 C 129.625 -33.019531 135.765625 -36.5 141.015625 -39.78125 C 146.265625 -43.0625 150.398438 -45.816406 153.421875 -48.046875 C 156.441406 -50.285156 157.953125 -51.40625 157.953125 -51.40625 C 159.140625 -52.320312 160.453125 -52.71875 161.890625 -52.59375 C 163.203125 -52.457031 164.320312 -51.796875 165.25 -50.609375 Z M 12.21875 -46.484375 C 10.769531 -44.515625 10.929688 -43.429688 12.703125 -43.234375 C 14.472656 -43.035156 17 -43.425781 20.28125 -44.40625 C 23.5625 -45.394531 26.941406 -46.644531 30.421875 -48.15625 C 33.910156 -49.664062 36.703125 -51.078125 38.796875 -52.390625 C 42.867188 -55.148438 44.773438 -57.644531 44.515625 -59.875 C 44.378906 -61.320312 44.015625 -62.273438 43.421875 -62.734375 C 42.835938 -63.191406 42.019531 -63.484375 40.96875 -63.609375 C 36.757812 -63.878906 31.898438 -62.40625 26.390625 -59.1875 C 20.878906 -55.96875 16.15625 -51.734375 12.21875 -46.484375 Z M 12.21875 -46.484375 "/></g></g></g></g></g></svg>